<?xml version="1.0" encoding="UTF-8"?><svg id="b" xmlns="http://www.w3.org/2000/svg" viewBox="0 0 513.949 513.357"><g id="c"><path d="M257.046,46.842c26.436.912,51.867,5.684,76.316,15.454,2.699,1.079,4.576.833,6.925-.783,27.082-18.637,55.047-35.759,85.408-48.633,14.355-6.087,29.021-11.514,44.68-12.666,7.341-.54,15.076-.086,22.195,1.682,13.078,3.248,19.169,13.144,20.845,25.99,1.84,14.105-1.321,27.603-5.607,40.856-9.649,29.84-24.943,56.9-41.567,83.269-4.526,7.18-9.257,14.236-14.099,21.207-1.615,2.325-1.896,4.211-.901,6.958,27.416,75.679,17.102,145.864-33.125,208.801-34.201,42.856-79.785,67.341-134.259,74.623-35.495,4.745-70,.443-103.316-12.759-2.765-1.095-4.642-.629-6.947.948-28.309,19.361-57.466,37.239-89.379,50.179-13.408,5.436-27.107,10.032-41.63,11.135-5.865.445-11.959.371-17.714-.71-14.847-2.789-23.669-13.725-24.701-29.325-1.042-15.752,2.853-30.624,8.146-45.19,11.679-32.138,29.058-61.266,47.824-89.639,2.497-3.776,6.58-7.315,7.121-11.342.535-3.98-2.485-8.439-3.948-12.687C17.966,204.136,93.364,74.633,218.339,51.437c12.747-2.366,25.797-3.103,38.707-4.595ZM260.078,127.662c-41.933.936-80.267,17.833-110.081,53.013-6.591,7.777-13.034,15.731-15.252,26.09-1.886,8.808,5.077,15.349,13.6,12.348,3.606-1.27,7.012-3.672,9.927-6.223,5.958-5.214,11.414-10.995,17.267-16.334,23.047-21.02,50.006-31.508,81.368-29.471,13.304.864,25.942,4.386,37.025,12.114,11.219,7.822,17.429,18.406,16.345,32.447-.684,8.851-4.575,16.533-9.558,23.691-7.779,11.175-18.224,19.63-28.585,28.238-11.84,9.835-24.239,19.242-34.743,30.392-21.181,22.482-19.918,52.394,2.487,73.721,20.254,19.279,44.158,22.081,69.776,12.956,22.435-7.991,38.93-23.705,52.648-42.584,7.564-10.41,14.597-21.206,18.748-33.525,2.014-5.975.147-11.205-4.333-13.762-4.893-2.792-10.205-1.954-14.507,2.86-3.093,3.461-5.803,7.296-8.418,11.144-11.07,16.288-24.233,30.176-42.637,38.325-10.747,4.759-21.491,5.724-32.414.755-9.075-4.128-12.447-13.485-7.676-22.212,1.665-3.046,3.839-6.096,6.496-8.271,11.918-9.759,24.005-19.32,36.198-28.734,18.882-14.578,34.541-31.798,44.453-53.727,6.008-13.293,8.756-27.201,6.044-41.757-3.706-19.89-15.873-33.742-32.557-43.985-20.745-12.737-43.71-17.217-71.622-17.507ZM233.712,207.957c-5.258.776-9.545,1.003-13.609,2.075-28.376,7.481-50.374,24.116-66.342,48.358-26.953,40.921-14.452,87.044,30.061,112.447,3.266,1.864,6.704,2.715,9.712-.44,2.776-2.912,2.048-6.007.454-9.378-3.014-6.375-6.056-12.785-8.373-19.429-4.089-11.724-6.564-23.762-3.447-36.204,2.999-11.97,9.056-22.492,18.023-30.691,12.495-11.425,25.918-21.829,38.848-32.783,4.503-3.815,9.434-7.432,12.907-12.083,5.536-7.413,2.674-16.004-5.992-19.244-4.148-1.551-8.742-1.91-12.243-2.626ZM383.511,89.048c13.789,13.789,27.349,27.35,41.397,41.398,6.209-10.818,13.18-22.109,19.242-33.869,3.262-6.327,5.692-13.299,7.206-20.261,2.516-11.571-3.056-16.608-14.735-14.241-2.212.448-4.426.993-6.552,1.74-17.092,6.008-32.153,15.726-46.558,25.233ZM89.382,383.145c-9.49,14.39-19.258,29.297-25.054,46.294-1.472,4.318-2.048,9.097-2.147,13.684-.105,4.881,3.036,7.842,7.894,8.337,2.215.226,4.568.142,6.732-.353,20.425-4.672,37.184-16.516,53.609-26.961-13.717-13.706-27.261-27.238-41.035-41.001Z" style="fill:#fff;"/></g></svg>